<svg xmlns="http://www.w3.org/2000/svg" xmlns:xlink="http://www.w3.org/1999/xlink" fill="none" version="1.1" width="32.920047760009766" height="32" viewBox="0 0 32.920047760009766 32"><path d="M16.098894,31.992832L16.12612,31.991491L16.153261,31.993979Q16.218878,32,16.284678,32Q16.880718,32,17.302181,31.578278Q17.723646,31.156561,17.723646,30.56016L17.723646,16.274754L22.963112,14.869989L22.963112,28.300528Q22.96311,29.136408,23.689756,29.551579Q23.693121,29.553518,23.6959,29.555185Q24.02548,29.752344,24.412144,29.752344Q24.815092,29.752344,25.156246,29.537806Q28.008421,27.744156,30.026127,25.024574Q32.138149,22.177845,32.884945,18.906057Q32.920048,18.752274,32.920048,18.594507Q32.920048,18.014927,32.510471,17.605104Q32.100895,17.195278,31.521667,17.195278Q31.03241,17.195278,30.649866,17.500488Q30.267324,17.805695,30.158392,18.282961Q29.542387,20.981726,27.780512,23.356497Q27.186796,24.156746,26.507498,24.862213L25.841043,25.554344L25.841043,14.098384L31.696737,12.5284Q32.272457,12.374045,32.570469,11.857554Q32.868488,11.341059,32.714222,10.764996Q32.559959,10.188926,32.043785,9.8907309Q31.527609,9.592536,30.951887,9.746892L25.841043,11.11717L25.841043,7.2879014Q25.841047,6.6914992,25.419582,6.2697811Q24.998119,5.848062,24.402075,5.8480616Q23.806038,5.848062,23.384575,6.2697802Q22.96311,6.6914992,22.963112,7.2879014L22.963112,11.888778L17.723646,13.293543L17.723646,1.4398398Q17.723646,0.84343815,17.302181,0.42171937Q16.880718,0,16.284678,-1.2323996e-7Q15.68864,0,15.267174,0.42171931Q14.845714,0.84343815,14.845711,1.4398398L14.845711,14.065147L1.1301488,17.742453L1.1184413,17.744829Q0.63594413,17.842775,0.31989595,18.22534Q0,18.612564,0,19.116091Q0,19.301905,0.04856623,19.481649L0.048830997,19.482632Q0.75677127,22.120266,2.2674162,24.405369Q3.7543232,26.654551,5.8665304,28.333899Q7.9990249,30.029362,10.545566,30.965445Q13.176373,31.932516,15.998164,31.994211Q16.013716,31.994551,16.028791,31.994551Q16.063917,31.994551,16.098894,31.992832ZM14.845711,17.046362L14.845711,29.125746L14.404889,29.064392Q12.92343,28.858206,11.509983,28.338638Q9.386261,27.557987,7.6064029,26.142893Q5.8419108,24.740005,4.6000218,22.861443Q3.8773358,21.768263,3.3748786,20.578388L3.2016914,20.168262L14.845711,17.046362Z" fill-rule="evenodd" fill="#06A17E" fill-opacity="1"/></svg>